<svg id="svg" version="1.1" xmlns="http://www.w3.org/2000/svg" xmlns:xlink="http://www.w3.org/1999/xlink" width="400" height="400" viewBox="0, 0, 400,400"><g id="svgg"><path id="path0" d="M44.444 88.889 L 44.444 133.333 66.667 133.333 L 88.889 133.333 88.889 222.222 L 88.889 311.111 133.333 311.111 L 177.778 311.111 177.778 200.000 L 177.778 88.889 133.333 88.889 L 88.889 88.889 88.889 66.667 L 88.889 44.444 66.667 44.444 L 44.444 44.444 44.444 88.889 " stroke="none" fill="#bcbcc4" fill-rule="evenodd"></path><path id="path1" d="M266.667 66.667 L 266.667 88.889 244.444 88.889 L 222.222 88.889 222.222 222.222 L 222.222 355.556 266.667 355.556 L 311.111 355.556 311.111 266.667 L 311.111 177.778 333.333 177.778 L 355.556 177.778 355.556 111.111 L 355.556 44.444 311.111 44.444 L 266.667 44.444 266.667 66.667 " stroke="none" fill="#3c3c3c" fill-rule="evenodd"></path><path id="path2" d="M44.444 155.556 L 44.444 177.778 66.667 177.778 L 88.889 177.778 88.889 155.556 L 88.889 133.333 66.667 133.333 L 44.444 133.333 44.444 155.556 M88.889 333.333 L 88.889 355.556 133.333 355.556 L 177.778 355.556 177.778 333.333 L 177.778 311.111 133.333 311.111 L 88.889 311.111 88.889 333.333 " stroke="none" fill="#6c6c74" fill-rule="evenodd"></path><path id="path3" d="M88.889 66.667 L 88.889 88.889 111.111 88.889 L 133.333 88.889 133.333 66.667 L 133.333 44.444 111.111 44.444 L 88.889 44.444 88.889 66.667 " stroke="none" fill="#e4e4f4" fill-rule="evenodd"></path><path id="path4" d="M44.444 22.222 L 44.444 44.444 22.222 44.444 L 0.000 44.444 0.000 111.111 L 0.000 177.778 22.222 177.778 L 44.444 177.778 44.444 266.667 L 44.444 355.556 66.667 355.556 L 88.889 355.556 88.889 377.778 L 88.889 400.000 200.000 400.000 L 311.111 400.000 311.111 377.778 L 311.111 355.556 333.333 355.556 L 355.556 355.556 355.556 266.667 L 355.556 177.778 377.778 177.778 L 400.000 177.778 400.000 111.111 L 400.000 44.444 377.778 44.444 L 355.556 44.444 355.556 22.222 L 355.556 0.000 311.111 0.000 L 266.667 0.000 266.667 22.222 L 266.667 44.444 244.444 44.444 L 222.222 44.444 222.222 66.667 L 222.222 88.889 200.000 88.889 L 177.778 88.889 177.778 66.667 L 177.778 44.444 155.556 44.444 L 133.333 44.444 133.333 22.222 L 133.333 0.000 88.889 0.000 L 44.444 0.000 44.444 22.222 M133.333 66.667 L 133.333 88.889 155.556 88.889 L 177.778 88.889 177.778 222.222 L 177.778 355.556 133.333 355.556 L 88.889 355.556 88.889 266.667 L 88.889 177.778 66.667 177.778 L 44.444 177.778 44.444 111.111 L 44.444 44.444 88.889 44.444 L 133.333 44.444 133.333 66.667 M355.556 111.111 L 355.556 177.778 333.333 177.778 L 311.111 177.778 311.111 266.667 L 311.111 355.556 266.667 355.556 L 222.222 355.556 222.222 222.222 L 222.222 88.889 244.444 88.889 L 266.667 88.889 266.667 66.667 L 266.667 44.444 311.111 44.444 L 355.556 44.444 355.556 111.111 " stroke="none" fill="#040404" fill-rule="evenodd"></path></g></svg>