<svg id="svg" version="1.1" xmlns="http://www.w3.org/2000/svg" xmlns:xlink="http://www.w3.org/1999/xlink" width="400" height="400" viewBox="0, 0, 400,400"><g id="svgg"><path id="path0" d="M44.444 88.889 L 44.444 133.333 66.667 133.333 L 88.889 133.333 88.889 244.444 L 88.889 355.556 200.000 355.556 L 311.111 355.556 311.111 244.444 L 311.111 133.333 333.333 133.333 L 355.556 133.333 355.556 88.889 L 355.556 44.444 311.111 44.444 L 266.667 44.444 266.667 66.667 L 266.667 88.889 244.444 88.889 L 222.222 88.889 222.222 111.111 L 222.222 133.333 200.000 133.333 L 177.778 133.333 177.778 111.111 L 177.778 88.889 155.556 88.889 L 133.333 88.889 133.333 66.667 L 133.333 44.444 88.889 44.444 L 44.444 44.444 44.444 88.889 " stroke="none" fill="#3c3c3c" fill-rule="evenodd"></path><path id="path1" d="M44.444 22.222 L 44.444 44.444 22.222 44.444 L 0.000 44.444 0.000 88.889 L 0.000 133.333 22.222 133.333 L 44.444 133.333 44.444 244.444 L 44.444 355.556 66.667 355.556 L 88.889 355.556 88.889 377.778 L 88.889 400.000 200.000 400.000 L 311.111 400.000 311.111 377.778 L 311.111 355.556 333.333 355.556 L 355.556 355.556 355.556 244.444 L 355.556 133.333 377.778 133.333 L 400.000 133.333 400.000 88.889 L 400.000 44.444 377.778 44.444 L 355.556 44.444 355.556 22.222 L 355.556 0.000 311.111 0.000 L 266.667 0.000 266.667 22.222 L 266.667 44.444 244.444 44.444 L 222.222 44.444 222.222 66.667 L 222.222 88.889 200.000 88.889 L 177.778 88.889 177.778 66.667 L 177.778 44.444 155.556 44.444 L 133.333 44.444 133.333 22.222 L 133.333 0.000 88.889 0.000 L 44.444 0.000 44.444 22.222 M133.333 66.667 L 133.333 88.889 155.556 88.889 L 177.778 88.889 177.778 111.111 L 177.778 133.333 200.000 133.333 L 222.222 133.333 222.222 111.111 L 222.222 88.889 244.444 88.889 L 266.667 88.889 266.667 66.667 L 266.667 44.444 311.111 44.444 L 355.556 44.444 355.556 88.889 L 355.556 133.333 333.333 133.333 L 311.111 133.333 311.111 244.444 L 311.111 355.556 200.000 355.556 L 88.889 355.556 88.889 244.444 L 88.889 133.333 66.667 133.333 L 44.444 133.333 44.444 88.889 L 44.444 44.444 88.889 44.444 L 133.333 44.444 133.333 66.667 " stroke="none" fill="#040404" fill-rule="evenodd"></path><path id="path2" d="" stroke="none" fill="#2c4020" fill-rule="evenodd"></path><path id="path3" d="" stroke="none" fill="#2c4020" fill-rule="evenodd"></path><path id="path4" d="" stroke="none" fill="#2c4020" fill-rule="evenodd"></path></g></svg>