<?xml version="1.0" encoding="UTF-8" standalone="no"?>
<!-- Created with Inkscape (http://www.inkscape.org/) -->

<svg
   width="6.3499999mm"
   height="6.3499999mm"
   viewBox="0 0 6.3499999 6.3499999"
   version="1.1"
   id="svg5"
   inkscape:version="1.1 (c4e8f9e, 2021-05-24)"
   sodipodi:docname="JitterBrush.svg"
   xmlns:inkscape="http://www.inkscape.org/namespaces/inkscape"
   xmlns:sodipodi="http://sodipodi.sourceforge.net/DTD/sodipodi-0.dtd"
   xmlns="http://www.w3.org/2000/svg"
   xmlns:svg="http://www.w3.org/2000/svg">
  <sodipodi:namedview
     id="namedview7"
     pagecolor="#ffffff"
     bordercolor="#666666"
     borderopacity="1.0"
     inkscape:pageshadow="2"
     inkscape:pageopacity="0.0"
     inkscape:pagecheckerboard="0"
     inkscape:document-units="mm"
     showgrid="false"
     inkscape:zoom="18.786307"
     inkscape:cx="10.406516"
     inkscape:cy="10.512976"
     inkscape:window-width="1600"
     inkscape:window-height="853"
     inkscape:window-x="0"
     inkscape:window-y="23"
     inkscape:window-maximized="1"
     inkscape:current-layer="layer1" />
  <defs
     id="defs2" />
  <g
     inkscape:label="Layer 1"
     inkscape:groupmode="layer"
     id="layer1"
     transform="translate(-40.090554,-101.38342)">
    <g
       style="fill:#000000"
       id="g836"
       transform="matrix(0.26458333,0,0,0.26458333,40.090554,101.38342)">
      <path
         d="M 0,0 H 24 V 24 H 0 Z"
         fill="none"
         id="path824" />
      <path
         d="m 7,14 c -1.66,0 -3,1.34 -3,3 0,1.31 -1.16,2 -2,2 0.92,1.22 2.49,2 4,2 2.21,0 4,-1.79 4,-4 0,-1.66 -1.34,-3 -3,-3 z M 20.71,4.63 19.37,3.29 C 18.98,2.9 18.35,2.9 17.96,3.29 L 9,12.25 11.75,15 20.71,6.04 c 0.39,-0.39 0.39,-1.02 0,-1.41 z"
         id="path826" />
    </g>
    <path
       sodipodi:type="star"
       style="font-variation-settings:normal;opacity:1;vector-effect:none;fill:#1a1a1a;fill-opacity:1;fill-rule:evenodd;stroke:none;stroke-width:0.999999;stroke-linecap:butt;stroke-linejoin:miter;stroke-miterlimit:4;stroke-dasharray:none;stroke-dashoffset:0;stroke-opacity:1;-inkscape-stroke:none;stop-color:#000000;stop-opacity:1"
       id="path2154"
       inkscape:flatsided="false"
       sodipodi:sides="5"
       sodipodi:cx="6.1320553"
       sodipodi:cy="7.9442811"
       sodipodi:r1="2.7183506"
       sodipodi:r2="1.4744852"
       sodipodi:arg1="0.71323874"
       sodipodi:arg2="1.3415573"
       inkscape:rounded="0"
       inkscape:randomized="0"
       d="M 8.1877992,9.7228612 6.4671122,9.3801931 5.0757849,10.449021 4.8699601,8.7066604 3.4235004,7.7137155 5.0169807,6.9795454 5.5143467,5.2970436 6.7049965,6.5856624 8.4588453,6.5387639 7.6012271,8.0693443 Z"
       transform="matrix(0.26458333,0,0,0.26458333,40.408734,101.37595)"
       inkscape:transform-center-x="0.050504339"
       inkscape:transform-center-y="-0.018851239" />
    <path
       sodipodi:type="star"
       style="font-variation-settings:normal;opacity:1;vector-effect:none;fill:#1a1a1a;fill-opacity:1;fill-rule:evenodd;stroke:none;stroke-width:0.999999;stroke-linecap:butt;stroke-linejoin:miter;stroke-miterlimit:4;stroke-dasharray:none;stroke-dashoffset:0;stroke-opacity:1;-inkscape-stroke:none;stop-color:#000000;stop-opacity:1"
       id="path2156"
       inkscape:flatsided="false"
       sodipodi:sides="5"
       sodipodi:cx="1.7825603"
       sodipodi:cy="11.145058"
       sodipodi:r1="1.8070877"
       sodipodi:r2="0.98019874"
       sodipodi:arg1="0.24628831"
       sodipodi:arg2="0.87460684"
       inkscape:rounded="0"
       inkscape:randomized="0"
       d="M 3.5351174,11.585636 2.4111604,11.897156 1.905115,12.947985 1.2615207,11.975303 0.10574623,11.818749 0.83194005,10.906079 0.62367761,9.7584948 1.7160844,10.167116 2.7431455,9.6144232 2.6920962,10.779635 Z"
       transform="matrix(0.26458333,0,0,0.26458333,40.677399,101.57671)"
       inkscape:transform-center-x="-0.010020152"
       inkscape:transform-center-y="0.03602201" />
    <path
       sodipodi:type="star"
       style="font-variation-settings:normal;opacity:1;vector-effect:none;fill:#1a1a1a;fill-opacity:1;fill-rule:evenodd;stroke:none;stroke-width:0.999999;stroke-linecap:butt;stroke-linejoin:miter;stroke-miterlimit:4;stroke-dasharray:none;stroke-dashoffset:0;stroke-opacity:1;-inkscape-stroke:none;stop-color:#000000;stop-opacity:1"
       id="path2158"
       inkscape:flatsided="false"
       sodipodi:sides="5"
       sodipodi:cx="2.3496265"
       sodipodi:cy="4.6765752"
       sodipodi:r1="1.5406973"
       sodipodi:r2="0.83570349"
       sodipodi:arg1="1.0685114"
       sodipodi:arg2="1.69683"
       inkscape:rounded="0"
       inkscape:randomized="0"
       d="M 3.0913637,6.026973 2.2445784,5.5056501 1.2945313,5.799305 1.5286678,4.8328667 0.95580466,4.0200625 1.9472943,3.9440937 2.5432925,3.1480982 2.9219303,4.0675852 3.8631406,4.3884371 3.105662,5.0326802 Z"
       transform="matrix(0.22061139,0.14606489,-0.14606489,0.22061139,40.910253,102.09321)"
       inkscape:transform-center-x="0.010386158"
       inkscape:transform-center-y="0.028915993" />
  </g>
</svg>
